<svg width="39" height="35" viewBox="0 0 39 35" fill="none" xmlns="http://www.w3.org/2000/svg">
<path d="M25.375 31.209V19.459C25.375 18.9396 25.5813 18.4415 25.9486 18.0742C26.3158 17.707 26.814 17.5007 27.3333 17.5007H35.1667C35.686 17.5007 36.1842 17.707 36.5514 18.0742C36.9187 18.4415 37.125 18.9396 37.125 19.459V31.209C37.125 31.7284 36.9187 32.2265 36.5514 32.5937C36.1842 32.961 35.686 33.1673 35.1667 33.1673M25.375 31.209C25.375 31.7284 25.5813 32.2265 25.9486 32.5937C26.3158 32.961 26.814 33.1673 27.3333 33.1673H35.1667M25.375 31.209C25.375 31.7284 25.1687 32.2265 24.8014 32.5937C24.4342 32.961 23.936 33.1673 23.4167 33.1673H15.5833C15.064 33.1673 14.5658 32.961 14.1986 32.5937C13.8313 32.2265 13.625 31.7284 13.625 31.209M25.375 31.209V11.6257C25.375 11.1063 25.1687 10.6082 24.8014 10.2409C24.4342 9.87364 23.936 9.66732 23.4167 9.66732H15.5833C15.064 9.66732 14.5658 9.87364 14.1986 10.2409C13.8313 10.6082 13.625 11.1063 13.625 11.6257V31.209M35.1667 33.1673H7.75M13.625 31.209C13.625 31.7284 13.4187 32.2265 13.0514 32.5937C12.6842 32.961 12.186 33.1673 11.6667 33.1673H3.83333C3.31395 33.1673 2.81584 32.961 2.44858 32.5937C2.08132 32.2265 1.875 31.7284 1.875 31.209V3.79232C1.875 3.27294 2.08132 2.77483 2.44858 2.40757C2.81584 2.04031 3.31395 1.83398 3.83333 1.83398H11.6667C12.186 1.83398 12.6842 2.04031 13.0514 2.40757C13.4187 2.77483 13.625 3.27294 13.625 3.79232V31.209Z" stroke="#D24435" stroke-width="2" stroke-linecap="round" stroke-linejoin="round"/>
</svg>
