<svg width="39" height="35" viewBox="0 0 39 35" fill="none" xmlns="http://www.w3.org/2000/svg">
<path d="M13.625 31.209V19.459C13.625 18.9396 13.4187 18.4415 13.0514 18.0742C12.6842 17.707 12.186 17.5007 11.6667 17.5007H3.83333C3.31395 17.5007 2.81584 17.707 2.44858 18.0742C2.08132 18.4415 1.875 18.9396 1.875 19.459V31.209C1.875 31.7284 2.08132 32.2265 2.44858 32.5937C2.81584 32.961 3.31395 33.1673 3.83333 33.1673M13.625 31.209C13.625 31.7284 13.4187 32.2265 13.0514 32.5937C12.6842 32.961 12.186 33.1673 11.6667 33.1673H3.83333M13.625 31.209C13.625 31.7284 13.8313 32.2265 14.1986 32.5937C14.5658 32.961 15.064 33.1673 15.5833 33.1673H23.4167C23.936 33.1673 24.4342 32.961 24.8014 32.5937C25.1687 32.2265 25.375 31.7284 25.375 31.209M13.625 31.209V11.6257C13.625 11.1063 13.8313 10.6082 14.1986 10.2409C14.5658 9.87364 15.064 9.66732 15.5833 9.66732H23.4167C23.936 9.66732 24.4342 9.87364 24.8014 10.2409C25.1687 10.6082 25.375 11.1063 25.375 11.6257V31.209M3.83333 33.1673H31.25M25.375 31.209C25.375 31.7284 25.5813 32.2265 25.9486 32.5937C26.3158 32.961 26.814 33.1673 27.3333 33.1673H35.1667C35.686 33.1673 36.1842 32.961 36.5514 32.5937C36.9187 32.2265 37.125 31.7284 37.125 31.209V3.79232C37.125 3.27294 36.9187 2.77483 36.5514 2.40757C36.1842 2.04031 35.686 1.83398 35.1667 1.83398H27.3333C26.814 1.83398 26.3158 2.04031 25.9486 2.40757C25.5813 2.77483 25.375 3.27294 25.375 3.79232V31.209Z" stroke="#05969F" stroke-width="2" stroke-linecap="round" stroke-linejoin="round"/>
</svg>
