<svg width="25" height="25" viewBox="0 0 25 25" fill="none" xmlns="http://www.w3.org/2000/svg">
<path d="M7 8C7 8.26522 7.10536 8.51957 7.29289 8.70711C7.48043 8.89464 7.73478 9 8 9C8.26522 9 8.51957 8.89464 8.70711 8.70711C8.89464 8.51957 9 8.26522 9 8C9 7.73478 8.89464 7.48043 8.70711 7.29289C8.51957 7.10536 8.26522 7 8 7C7.73478 7 7.48043 7.10536 7.29289 7.29289C7.10536 7.48043 7 7.73478 7 8Z" stroke="black" stroke-width="2" stroke-linecap="round" stroke-linejoin="round"/>
<path d="M3.5 6.5V11.672C3.50011 12.2024 3.7109 12.711 4.086 13.086L11.796 20.796C12.248 21.2479 12.8609 21.5017 13.5 21.5017C14.1391 21.5017 14.752 21.2479 15.204 20.796L20.796 15.204C21.2479 14.752 21.5017 14.1391 21.5017 13.5C21.5017 12.8609 21.2479 12.248 20.796 11.796L13.086 4.086C12.711 3.7109 12.2024 3.50011 11.672 3.5H6.5C5.70435 3.5 4.94129 3.81607 4.37868 4.37868C3.81607 4.94129 3.5 5.70435 3.5 6.5Z" stroke="black" stroke-width="2" stroke-linecap="round" stroke-linejoin="round"/>
</svg>
